#!OML:ASF F:\VICON\USERDATA\INSTALL\rory3\rory3.ASF
:FULLY-SPECIFIED
:DEGREES
557
root 2.09448 17.8048 6.07709 -362.935 -15.0579 1.26906
lowerback 22.6492 -0.191487 -1.61878
upperback 3.36936 -0.248459 4.39733
thorax -8.92242 -0.0117708 5.87728
lowerneck -9.99401 3.11025 0.0631534
upperneck 15.0428 5.19026 -6.02331
head 6.38582 2.0269 -1.48817
rclavicle 9.10434e-014 -5.725e-014
rhumerus -12.526 0.0893021 -67.3592
rradius 108.163
rwrist 19.4876
rhand -4.53912 2.62692
rfingers 7.12502
rthumb 21.2362 -26.2298
lclavicle 9.10434e-014 -5.725e-014
lhumerus -45.0298 5.1878 83.6736
lradius 55.2206
lwrist 12.945
lhand -12.6126 49.539
lfingers 7.12502
lthumb 13.4666 79.0837
rfemur -18.8314 10.8272 19.2833
rtibia 41.5042
rfoot -15.6712 4.96119
rtoes 17.1401
lfemur -13.7224 -4.43652 -22.8087
ltibia 36.4137
lfoot -15.9732 3.20866
ltoes -9.5595
558
root 2.0861 17.8075 6.03225 -362.743 -15.288 0.733977
lowerback 23.4781 -0.105014 -1.11384
upperback 2.98301 0.0266778 4.54788
thorax -9.82934 0.13339 5.71137
lowerneck -9.65949 3.03214 -0.00845034
upperneck 15.1763 5.10632 -6.08761
head 6.36733 1.97967 -1.50886
rclavicle 3.02153e-014 4.29375e-014
rhumerus -11.6332 2.86868 -68.1371
rradius 105.067
rwrist 20.281
rhand -6.03541 2.56765
rfingers 7.12502
rthumb 19.7983 -26.444
lclavicle 3.02153e-014 4.29375e-014
lhumerus -45.2208 4.72157 84.0084
lradius 55.4387
lwrist 12.8107
lhand -12.325 49.9496
lfingers 7.12502
lthumb 13.7438 79.4757
rfemur -19.0336 11.2577 19.9203
rtibia 41.3123
rfoot -15.36 4.81138
rtoes 16.5499
lfemur -14.2145 -4.50241 -22.1321
ltibia 36.6417
lfoot -15.7598 3.55382
ltoes -9.76859
559
root 2.0843 17.8162 6.01078 -362.598 -15.4158 1.06869
lowerback 23.5093 0.0141493 -1.05581
upperback 2.71961 0.190401 4.37021
thorax -10.1593 0.217374 5.43441
lowerneck -9.37689 2.93725 -0.156514
upperneck 15.3682 4.99505 -6.02561
head 6.37027 1.92227 -1.47822
rclavicle -1.11319e-014 2.06736e-014
rhumerus -11.7617 5.59461 -68.3497
rradius 102.346
rwrist 21.8046
rhand -6.73209 3.08562
rfingers 7.12502
rthumb 19.1285 -25.9937
lclavicle -1.11319e-014 2.06736e-014
lhumerus -45.2746 4.30727 84.2984
lradius 55.5906
lwrist 12.2917
lhand -11.4764 50.4228
lfingers 7.12502
lthumb 14.5615 79.8917
rfemur -19.294 11.0112 19.4891
rtibia 41.1417
rfoot -15.2357 5.26382
rtoes 16.4415
lfemur -14.6493 -4.66352 -22.4848
ltibia 36.7753
lfoot -15.6902 3.88458
ltoes -8.56819
560
root 2.07382 17.8285 5.99124 -362.497 -15.6289 1.20663
lowerback 23.3857 0.0903558 -1.0292
upperback 2.79566 0.27375 4.19864
thorax -10.0144 0.246941 5.19192
lowerneck -9.84323 2.93365 -0.1725
upperneck 15.6748 4.98916 -5.82466
head 6.54331 1.91721 -1.40535
rclavicle -6.75868e-015 -2.22639e-014
rhumerus -10.8053 7.97018 -69.0482
rradius 99.2223
rwrist 23.3514
rhand -7.49535 3.56446
rfingers 7.12502
rthumb 18.3944 -25.5858
lclavicle -6.75868e-015 -2.22639e-014
lhumerus -44.7757 3.77553 84.493
lradius 55.6234
lwrist 12.6056
lhand -12.1349 49.1861
lfingers 7.12502
lthumb 13.927 78.6997
rfemur -19.4865 10.9755 19.3218
rtibia 41.0074
rfoot -15.059 5.66782
rtoes 17.0208
lfemur -14.9499 -4.86265 -22.5989
ltibia 36.9103
lfoot -15.7394 4.29225
ltoes -6.42977
561
root 2.06028 17.8325 5.96874 -362.489 -15.6858 1.35379
lowerback 23.4804 0.23199 -1.10349
upperback 2.73396 0.43628 4.12791
thorax -10.1505 0.329017 5.10825
lowerneck -9.84388 2.81084 -0.333452
upperneck 15.9376 4.8206 -5.57496
head 6.61187 1.83959 -1.31377
rclavicle 4.65156e-014 -3.33958e-014
rhumerus -10.0943 10.2692 -69.3883
rradius 95.8962
rwrist 25.0938
rhand -7.93228 3.50423
rfingers 7.12502
rthumb 17.974 -25.6852
lclavicle 4.65156e-014 -3.33958e-014
lhumerus -44.6012 3.35778 84.8828
lradius 55.7415
lwrist 12.9517
lhand -13.4387 47.8628
lfingers 7.12502
lthumb 12.6703 77.4585
rfemur -19.6026 10.9864 19.1995
rtibia 40.9444
rfoot -14.9374 5.79746
rtoes 16.6897
lfemur -15.0408 -5.14394 -22.7192
ltibia 36.8978
lfoot -15.7226 4.61115
ltoes -3.84096
562
root 2.04214 17.8305 5.94131 -362.337 -15.5895 1.27149
lowerback 23.4565 0.344428 -1.02576
upperback 2.68536 0.608872 4.15918
thorax -10.2091 0.410074 5.04422
lowerneck -9.96788 2.69283 -0.35722
upperneck 16.1322 4.66345 -5.49012
head 6.6886 1.76222 -1.29486
rclavicle -1.51076e-014 -6.36111e-015
rhumerus -9.23692 12.3524 -69.5883
rradius 92.1831
rwrist 26.7808
rhand -8.55011 3.27115
rfingers 7.12502
rthumb 17.3795 -25.9719
lclavicle -1.51076e-014 -6.36111e-015
lhumerus -44.2711 2.83979 85.3506
lradius 55.8028
lwrist 12.9896
lhand -13.9342 47.7693
lfingers 7.12502
lthumb 12.1925 77.394
rfemur -19.8244 10.993 19.3245
rtibia 40.884
rfoot -14.6601 5.79144
rtoes 17.2775
lfemur -15.2352 -5.38649 -22.5718
ltibia 36.9103
lfoot -15.7108 4.86945
ltoes -2.85726
563
root 2.02014 17.8303 5.91498 -362.172 -15.5377 1.29791
lowerback 23.4009 0.535162 -1.14765
upperback 2.68082 0.831676 4.19551
thorax -10.2082 0.521326 5.08433
lowerneck -10.2368 2.57675 -0.44075
upperneck 16.256 4.50954 -5.35203
head 6.76605 1.68706 -1.2472
rclavicle -9.93923e-015 3.02153e-014
rhumerus -8.32844 14.0486 -69.7758
rradius 88.2228
rwrist 28.0464
rhand -8.58016 3.46536
rfingers 7.12502
rthumb 17.3505 -25.7802
lclavicle -9.93923e-015 3.02153e-014
lhumerus -43.6208 2.14208 85.8979
lradius 55.4186
lwrist 12.8287
lhand -13.9841 47.9728
lfingers 7.12502
lthumb 12.1445 77.6003
rfemur -20.1086 11.0405 19.3446
rtibia 40.8619
rfoot -14.5636 5.75829
rtoes 16.8954
lfemur -15.5278 -5.71256 -22.4949
ltibia 36.9143
lfoot -15.7679 5.09313
ltoes -1.07141
564
root 1.99828 17.8276 5.8937 -362.193 -15.4665 1.29914
lowerback 23.5462 0.685163 -1.30731
upperback 2.67055 0.9958 4.25538
thorax -10.3181 0.609227 5.19605
lowerneck -10.362 2.49201 -0.428315
upperneck 16.3763 4.40038 -5.34273
head 6.82376 1.63102 -1.25463
rclavicle 9.54166e-015 -1.43125e-014
rhumerus -7.44186 15.5229 -70.1467
rradius 83.9855
rwrist 29.1848
rhand -8.54427 3.7056
rfingers 7.12502
rthumb 17.3851 -25.5369
lclavicle 9.54166e-015 -1.43125e-014
lhumerus -43.1612 1.52336 86.3998
lradius 55.0437
lwrist 12.593
lhand -13.7873 48.2412
lfingers 7.12502
lthumb 12.3342 77.8573
rfemur -20.0701 11.0585 19.4073
rtibia 40.8315
rfoot -14.5792 5.76503
rtoes 16.927
lfemur -15.5409 -5.70794 -22.4671
ltibia 36.9106
lfoot -15.7627 5.43116
ltoes -1.65864
565
root 1.97658 17.8253 5.87998 -362.254 -15.169 1.36783
lowerback 23.5752 0.736621 -1.38902
upperback 2.65743 1.04315 4.24843
thorax -10.3546 0.636218 5.22146
lowerneck -10.4183 2.36106 -0.39256
upperneck 16.4385 4.21606 -5.31823
head 6.84861 1.5444 -1.2688
rclavicle -1.07344e-014 2.22639e-014
rhumerus -6.81738 16.7862 -70.6998
rradius 79.4694
rwrist 29.9291
rhand -9.02783 4.01671
rfingers 7.12502
rthumb 16.9196 -25.2663
lclavicle -1.07344e-014 2.22639e-014
lhumerus -42.9387 1.14689 86.7823
lradius 54.9854
lwrist 12.2109
lhand -13.7875 48.168
lfingers 7.12502
lthumb 12.334 77.7842
rfemur -19.9411 10.8446 19.3945
rtibia 40.8165
rfoot -14.615 5.77013
rtoes 17.4993
lfemur -15.4436 -5.8337 -22.5648
ltibia 36.8516
lfoot -15.6575 5.6997
ltoes -4.40813
566
root 1.95146 17.8276 5.86542 -362.27 -14.8068 1.35942
lowerback 23.6107 0.817102 -1.48514
upperback 2.62714 1.13295 4.30724
thorax -10.4206 0.686529 5.31678
lowerneck -10.5871 2.21128 -0.427978
upperneck 16.5599 4.0095 -5.20956
head 6.90866 1.44672 -1.24521
rclavicle 5.00937e-014 -2.54444e-014
rhumerus -6.19761 17.7032 -71.2671
rradius 74.6712
rwrist 30.3258
rhand -9.47062 4.29089
rfingers 7.12502
rthumb 16.4934 -25.0281
lclavicle 5.00937e-014 -2.54444e-014
lhumerus -42.7266 0.692288 87.2079
lradius 55.1154
lwrist 12.0777
lhand -13.6312 48.4492
lfingers 7.12502
lthumb 12.4847 78.0563
rfemur -19.8874 10.655 19.4836
rtibia 40.7964
rfoot -14.611 5.63831
rtoes 17.3888
lfemur -15.4172 -6.17533 -22.5641
ltibia 36.7788
lfoot -15.4677 6.15703
ltoes -6.49624
567
root 1.92656 17.8292 5.85275 -362.343 -14.3496 1.3474
lowerback 23.8426 0.886746 -1.58944
upperback 2.52051 1.21292 4.38719
thorax -10.679 0.738849 5.44966
lowerneck -10.8087 2.04096 -0.383787
upperneck 16.8313 3.78064 -5.16312
head 7.02893 1.33359 -1.25702
rclavicle -5.08889e-014 4.77083e-015
rhumerus -5.74008 18.3225 -71.8294
rradius 69.8168
rwrist 31.1024
rhand -9.12666 4.26053
rfingers 7.12502
rthumb 16.8245 -25.0306
lclavicle -5.08889e-014 4.77083e-015
lhumerus -42.5707 0.124255 87.6669
lradius 55.1217
lwrist 11.8885
lhand -13.2691 48.8249
lfingers 7.12502
lthumb 12.8338 78.4104
rfemur -19.7585 10.4762 19.5737
rtibia 40.7979
rfoot -14.6102 5.51098
rtoes 17.9495
lfemur -15.3062 -6.51373 -22.5437
ltibia 36.6833
lfoot -15.2797 6.49588
ltoes -7.99208
